<?xml version="1.0" encoding="UTF-8" standalone="no"?>
<!-- Created with Inkscape (http://www.inkscape.org/) -->

<svg
   version="1.1"
   id="svg2"
   xml:space="preserve"
   width="447.21201"
   height="281.69867"
   viewBox="0 0 447.21201 281.69867"
   sodipodi:docname="WT_Technology_Logo_Purple_Positive_RGB.ai"
   xmlns:inkscape="http://www.inkscape.org/namespaces/inkscape"
   xmlns:sodipodi="http://sodipodi.sourceforge.net/DTD/sodipodi-0.dtd"
   xmlns="http://www.w3.org/2000/svg"
   xmlns:svg="http://www.w3.org/2000/svg"><defs
     id="defs6"><clipPath
       clipPathUnits="userSpaceOnUse"
       id="clipPath20"><path
         d="M 0,211.274 H 335.409 V 0 H 0 Z"
         id="path18" /></clipPath><clipPath
       clipPathUnits="userSpaceOnUse"
       id="clipPath70"><path
         d="M 0,211.274 H 335.409 V 0 H 0 Z"
         id="path68" /></clipPath><clipPath
       clipPathUnits="userSpaceOnUse"
       id="clipPath110"><path
         d="M 0,211.274 H 335.409 V 0 H 0 Z"
         id="path108" /></clipPath></defs><sodipodi:namedview
     id="namedview4"
     pagecolor="#ffffff"
     bordercolor="#666666"
     borderopacity="1.0"
     inkscape:pageshadow="2"
     inkscape:pageopacity="0.0"
     inkscape:pagecheckerboard="0" /><g
     id="g8"
     inkscape:groupmode="layer"
     inkscape:label="WT_Technology_Logo_Purple_Positive_RGB"
     transform="matrix(1.3333333,0,0,-1.3333333,0,281.69867)"><g
       id="g10"
       transform="translate(51.9447,175.602)"><path
         d="m 0,0 h -9.699 v 9.699 h -6.574 V 0 h -9.699 v -6.574 h 9.699 v -9.699 l 6.574,0.001 v 9.698 H 0 Z"
         style="fill:#410099;fill-opacity:1;fill-rule:nonzero;stroke:none"
         id="path12" /></g><g
       id="g14"><g
         id="g16"
         clip-path="url(#clipPath20)"><g
           id="g22"
           transform="translate(154.5887,102.1625)"><path
             d="M 0,0 -7.376,14.602 H -10.8 v -29.58 h 3.287 V 7.816 L -1.054,-5.207 H 1.054 L 7.513,7.816 V -14.978 H 10.8 v 29.58 H 7.376 Z m 58.311,1.407 -4.703,1.869 c -3.18,1.335 -3.625,2.841 -3.625,4.149 0,1.203 0.455,2.19 1.349,2.935 1.058,0.881 2.682,1.367 4.571,1.367 1.905,0 3.533,-0.505 4.583,-1.423 0.98,-0.856 1.477,-2.066 1.477,-3.598 V 6.167 h 3.286 v 0.539 c 0,5.119 -3.821,8.308 -9.346,8.308 -5.523,0 -9.206,-3.144 -9.206,-7.589 0,-3.952 2.808,-6.108 6.214,-7.41 l 4.205,-1.669 c 4.055,-1.582 5.228,-2.74 5.228,-5.157 0,-1.579 -0.536,-2.841 -1.593,-3.752 -1.15,-0.993 -2.916,-1.539 -4.973,-1.539 -2.095,0 -3.889,0.528 -5.05,1.484 -1.036,0.853 -1.56,2.044 -1.56,3.538 v 0.719 H 45.881 V -7.08 c 0,-5.12 4.052,-8.308 9.897,-8.308 5.847,0 9.852,3.368 9.852,8.577 0,5.075 -3.866,6.871 -7.319,8.218 M -51.704,1.456 h -12.891 v 13.147 h -3.286 v -29.581 h 3.286 v 13.147 h 12.891 v -13.147 h 3.287 v 29.581 h -3.287 z m -49.326,9.859 h 10.565 v -26.293 h 3.286 v 26.293 h 10.565 v 3.288 H -101.03 Z M 84.935,42.564 77.559,57.166 H 74.135 V 27.587 h 3.287 v 22.794 l 6.459,-13.024 h 2.107 l 6.459,13.024 V 27.587 h 3.288 V 57.166 H 92.311 Z M 37.685,30.874 H 22.859 v 9.901 h 13.219 v 3.287 H 22.859 v 9.818 h 14.826 v 3.287 H 19.572 V 27.587 H 37.685 Z M -6.43,53.88 h 6.552 c 3.484,0 6.308,-2.824 6.308,-6.308 v -10.39 c 0,-3.484 -2.824,-6.308 -6.308,-6.308 H -6.43 Z M 9.717,37.182 v 10.39 c 0,5.291 -4.304,9.595 -9.595,9.595 h -9.839 v -29.58 h 9.839 c 5.291,0 9.595,4.304 9.595,9.595 M 121.65,-8.191 108.263,14.603 h -3.114 v -29.581 l 3.288,10e-4 V 7.816 l 13.386,-22.794 h 3.114 v 29.581 l -3.287,-10e-4 z m 29.912,65.357 V 34.373 l -13.387,22.794 h -3.113 v -29.58 h 3.287 v 22.794 l 13.387,-22.794 h 3.113 v 29.58 z M -22.416,34.373 -35.804,57.167 h -3.113 v -29.58 h 3.287 v 22.794 l 13.387,-22.794 h 3.113 v 29.58 l -3.286,-0.001 z m -0.299,-40.166 c 0,-3.484 -2.824,-6.309 -6.308,-6.309 -3.484,0 -6.309,2.825 -6.309,6.309 V 5.418 c 0,3.484 2.825,6.309 6.309,6.309 3.484,0 6.308,-2.825 6.308,-6.309 z m -6.308,20.807 c -5.29,0 -9.595,-4.305 -9.595,-9.596 V -5.793 c 0,-5.291 4.305,-9.595 9.595,-9.595 5.291,0 9.595,4.304 9.595,9.595 V 5.418 c 0,5.291 -4.304,9.596 -9.595,9.596 M 91.243,-5.793 c 0,-3.484 -2.824,-6.309 -6.308,-6.309 -3.484,0 -6.309,2.825 -6.309,6.309 V 5.418 c 0,3.484 2.825,6.309 6.309,6.309 3.484,0 6.308,-2.825 6.308,-6.309 z m -6.308,20.807 c -5.29,0 -9.595,-4.305 -9.595,-9.596 V -5.793 c 0,-5.291 4.305,-9.595 9.595,-9.595 5.291,0 9.594,4.304 9.594,9.595 V 5.418 c 0,5.291 -4.303,9.596 -9.594,9.596 m 25.554,22.666 4.554,14.247 4.555,-14.247 z m 2.776,19.487 -9.454,-29.58 h 3.453 l 2.174,6.806 h 11.209 l 2.176,-6.806 h 3.453 l -9.455,29.58 z m -89.9,-72.145 h -0.003 z m 6.549,14.921 h -6.552 v 11.372 h 6.552 c 3.141,0 5.687,-2.545 5.687,-5.685 0,-3.141 -2.546,-5.687 -5.687,-5.687 m 0,14.66 h -9.839 v -29.581 h 3.287 v 11.634 h 6.552 c 4.948,0 8.974,4.026 8.974,8.974 0,4.947 -4.026,8.973 -8.974,8.973 m -112.376,19.77 -4.367,22.794 h -3.987 l -4.366,-22.794 -4.115,22.794 h -3.347 l 5.677,-29.58 h 3.482 l 4.663,22.897 4.663,-22.897 h 3.481 L -75,57.167 h -3.348 z m 30.877,2.25 c 0,-4.386 -2.968,-6.16 -6.564,-6.161 -3.597,0.001 -6.564,1.775 -6.564,6.161 V 57.167 H -68 V 36.592 c 0,-5.808 4.015,-9.416 9.851,-9.416 v 0 c 5.836,0 9.851,3.608 9.851,9.416 v 20.575 h -3.287 z M 56.188,42.508 H 49.636 V 53.88 h 6.552 c 3.141,0 5.687,-2.546 5.687,-5.686 0,-3.14 -2.546,-5.686 -5.687,-5.686 m 8.973,5.686 c 0,4.948 -4.025,8.973 -8.973,8.973 H 46.35 v -29.58 h 3.286 v 11.634 h 6.552 c 0.255,0 0.508,0.011 0.758,0.032 l 5.34,-11.666 h 3.615 l -5.748,12.559 c 2.964,1.466 5.008,4.522 5.008,8.048 M 49.64,27.587 h -0.004 z"
             style="fill:#0a47ed;fill-opacity:1;fill-rule:nonzero;stroke:none"
             id="path24" /></g><g
           id="g26"
           transform="translate(70.5253,56.3744)"><path
             d="m 0,0 h -19.447 v -3.012 h 8.083 v -27.393 h 3.236 V -3.012 H 0 Z"
             style="fill:#410099;fill-opacity:1;fill-rule:nonzero;stroke:none"
             id="path28" /></g><g
           id="g30"
           transform="translate(72.9769,39.6684)"><path
             d="m 0,0 v 0.941 c 0,0.847 0.121,1.638 0.358,2.351 0.233,0.7 0.58,1.312 1.032,1.818 0.449,0.504 1.018,0.912 1.69,1.215 1.34,0.601 3.273,0.603 4.615,0 C 8.369,6.022 8.937,5.613 9.385,5.11 9.836,4.604 10.183,3.993 10.417,3.293 10.655,2.577 10.775,1.786 10.775,0.941 V 0 Z M 11.46,7.182 C 10.729,7.943 9.83,8.538 8.786,8.95 6.687,9.775 3.997,9.757 1.944,8.95 0.903,8.539 -0.01,7.946 -0.769,7.188 -1.53,6.427 -2.124,5.489 -2.533,4.401 -2.939,3.323 -3.146,2.1 -3.146,0.762 v -6.556 c 0,-1.28 0.208,-2.447 0.616,-3.468 0.411,-1.028 1.006,-1.921 1.768,-2.651 0.76,-0.728 1.674,-1.289 2.718,-1.669 1.033,-0.376 2.188,-0.566 3.432,-0.566 1.21,0 2.345,0.173 3.375,0.517 1.043,0.347 1.943,0.862 2.676,1.532 0.732,0.667 1.312,1.482 1.725,2.418 0.413,0.938 0.623,2.019 0.623,3.213 v 0.855 h -3.012 v -1.034 c 0,-1.328 -0.435,-2.422 -1.332,-3.347 -0.88,-0.907 -2.245,-1.367 -4.055,-1.367 -1.769,0 -3.077,0.501 -3.998,1.533 C 0.455,-8.781 0,-7.521 0,-5.974 v 3.098 h 13.787 v 3.638 c 0,1.335 -0.207,2.558 -0.614,3.638 -0.408,1.086 -0.985,2.022 -1.713,2.782"
             style="fill:#410099;fill-opacity:1;fill-rule:nonzero;stroke:none"
             id="path32" /></g><g
           id="g34"
           transform="translate(105.4339,47.1879)"><path
             d="m 0,0 c -0.744,0.665 -1.643,1.179 -2.67,1.528 -2.038,0.687 -4.773,0.717 -6.844,-0.097 -1.041,-0.411 -1.954,-1.004 -2.713,-1.762 -0.761,-0.762 -1.355,-1.699 -1.764,-2.787 -0.406,-1.078 -0.613,-2.302 -0.613,-3.64 v -6.107 c 0,-1.337 0.207,-2.561 0.613,-3.638 0.409,-1.089 1.003,-2.026 1.765,-2.788 0.76,-0.76 1.673,-1.353 2.713,-1.762 1.037,-0.408 2.196,-0.615 3.443,-0.615 1.24,0 2.383,0.175 3.4,0.519 1.025,0.346 1.924,0.86 2.67,1.527 0.749,0.669 1.338,1.484 1.751,2.422 0.413,0.937 0.623,2.018 0.623,3.213 v 0.899 h -3.057 v -1.079 c 0,-1.296 -0.435,-2.367 -1.33,-3.277 -0.88,-0.894 -2.245,-1.347 -4.057,-1.347 -0.865,0 -1.643,0.145 -2.315,0.435 -0.67,0.286 -1.236,0.686 -1.683,1.188 -0.451,0.505 -0.798,1.117 -1.032,1.818 -0.237,0.713 -0.358,1.49 -0.358,2.306 v 6.466 c 0,0.816 0.121,1.593 0.358,2.306 0.233,0.7 0.58,1.311 1.032,1.818 0.448,0.503 1.014,0.902 1.682,1.188 0.675,0.289 1.453,0.435 2.316,0.435 1.756,0 3.108,-0.448 4.02,-1.332 0.92,-0.894 1.367,-1.97 1.367,-3.292 v -0.989 h 3.057 v 0.809 c 0,1.162 -0.209,2.236 -0.622,3.188 C 1.339,-1.493 0.75,-0.67 0,0"
             style="fill:#410099;fill-opacity:1;fill-rule:nonzero;stroke:none"
             id="path36" /></g><g
           id="g38"
           transform="translate(120.9227,49.2338)"><path
             d="M 0,0 C -1.351,0 -2.58,-0.265 -3.654,-0.786 -4.365,-1.132 -5.005,-1.58 -5.567,-2.127 V 8.038 h -3.146 v -31.303 h 3.146 v 14.641 c 0,1.616 0.484,2.99 1.438,4.083 0.952,1.09 2.258,1.619 3.995,1.619 0.861,0 1.616,-0.138 2.245,-0.41 0.626,-0.273 1.157,-0.645 1.576,-1.104 0.42,-0.461 0.744,-1.014 0.962,-1.64 0.223,-0.64 0.335,-1.346 0.335,-2.099 v -15.09 H 8.13 v 14.911 c 0,2.564 -0.738,4.619 -2.194,6.107 C 4.476,-0.756 2.479,0 0,0"
             style="fill:#410099;fill-opacity:1;fill-rule:nonzero;stroke:none"
             id="path40" /></g><g
           id="g42"
           transform="translate(142.9364,49.2338)"><path
             d="m 0,0 c -1.414,0 -2.7,-0.297 -3.823,-0.882 -0.827,-0.432 -1.554,-1.01 -2.169,-1.723 l -0.418,2.156 h -2.303 v -22.816 h 3.146 v 14.641 c 0,1.616 0.484,2.99 1.438,4.083 0.952,1.09 2.258,1.619 3.995,1.619 0.861,0 1.616,-0.138 2.245,-0.41 0.626,-0.273 1.157,-0.645 1.576,-1.104 0.42,-0.461 0.744,-1.014 0.962,-1.64 0.223,-0.64 0.335,-1.346 0.335,-2.099 v -15.09 H 8.13 v 14.911 c 0,2.564 -0.738,4.619 -2.194,6.107 C 4.476,-0.756 2.479,0 0,0"
             style="fill:#410099;fill-opacity:1;fill-rule:nonzero;stroke:none"
             id="path44" /></g><g
           id="g46"
           transform="translate(169.5487,40.6098)"><path
             d="m 0,0 v -6.466 c 0,-0.812 -0.121,-1.588 -0.359,-2.305 -0.233,-0.701 -0.581,-1.312 -1.033,-1.82 -0.446,-0.501 -1.012,-0.9 -1.682,-1.187 -1.345,-0.579 -3.287,-0.577 -4.63,0 -0.67,0.286 -1.235,0.686 -1.683,1.188 -0.451,0.505 -0.798,1.117 -1.031,1.819 -0.238,0.712 -0.359,1.489 -0.359,2.305 V 0 c 0,0.816 0.121,1.593 0.359,2.306 0.232,0.7 0.58,1.311 1.031,1.818 0.449,0.503 1.014,0.902 1.682,1.188 0.675,0.29 1.454,0.435 2.316,0.435 0.861,0 1.64,-0.146 2.315,-0.435 0.669,-0.286 1.235,-0.686 1.682,-1.187 0.453,-0.509 0.8,-1.121 1.033,-1.818 C -0.121,1.588 0,0.812 0,0 M 0.769,6.247 C 0.01,7.005 -0.904,7.598 -1.946,8.009 -4.02,8.824 -6.756,8.824 -8.833,8.009 -9.874,7.598 -10.787,7.005 -11.545,6.247 -12.307,5.485 -12.9,4.548 -13.31,3.46 -13.716,2.382 -13.923,1.158 -13.923,-0.18 v -6.107 c 0,-1.337 0.207,-2.561 0.613,-3.638 0.41,-1.089 1.003,-2.026 1.765,-2.788 0.76,-0.76 1.673,-1.352 2.713,-1.762 1.038,-0.408 2.196,-0.615 3.443,-0.615 1.247,0 2.406,0.207 3.443,0.615 1.041,0.41 1.954,1.002 2.715,1.763 0.76,0.763 1.354,1.7 1.762,2.787 0.407,1.08 0.614,2.304 0.614,3.638 V -0.18 C 3.145,1.155 2.938,2.379 2.531,3.459 2.123,4.546 1.529,5.483 0.769,6.247"
             style="fill:#410099;fill-opacity:1;fill-rule:nonzero;stroke:none"
             id="path48" /></g><path
           d="m 177.604,25.969 h 3.146 v 31.303 h -3.146 z"
           style="fill:#410099;fill-opacity:1;fill-rule:nonzero;stroke:none"
           id="path50" /><g
           id="g52"
           transform="translate(199.5546,40.6098)"><path
             d="m 0,0 v -6.466 c 0,-0.814 -0.12,-1.59 -0.358,-2.305 -0.235,-0.703 -0.582,-1.315 -1.033,-1.819 -0.447,-0.502 -1.012,-0.902 -1.681,-1.188 -1.349,-0.579 -3.288,-0.577 -4.631,0 -0.67,0.286 -1.235,0.686 -1.683,1.188 -0.452,0.506 -0.799,1.117 -1.032,1.819 -0.238,0.712 -0.358,1.489 -0.358,2.305 V 0 c 0,0.816 0.12,1.593 0.358,2.306 0.233,0.699 0.58,1.311 1.032,1.818 0.448,0.503 1.015,0.902 1.682,1.188 0.675,0.29 1.454,0.435 2.316,0.435 0.862,0 1.64,-0.146 2.315,-0.435 C -2.405,5.026 -1.839,4.627 -1.391,4.124 -0.94,3.618 -0.593,3.007 -0.358,2.307 -0.12,1.59 0,0.814 0,0 m 0.769,6.247 c -0.76,0.758 -1.673,1.351 -2.714,1.762 -2.075,0.816 -4.812,0.815 -6.886,0 C -9.872,7.598 -10.785,7.005 -11.545,6.247 -12.307,5.484 -12.9,4.546 -13.309,3.46 -13.716,2.382 -13.922,1.158 -13.922,-0.18 v -6.107 c 0,-1.337 0.206,-2.561 0.613,-3.638 0.409,-1.087 1.002,-2.025 1.764,-2.788 0.762,-0.76 1.675,-1.352 2.714,-1.762 1.037,-0.408 2.195,-0.615 3.443,-0.615 1.247,0 2.406,0.207 3.443,0.615 1.039,0.41 1.952,1.002 2.714,1.762 0.759,0.762 1.353,1.699 1.763,2.788 0.407,1.08 0.614,2.304 0.614,3.638 v 6.107 c 0,1.335 -0.207,2.559 -0.614,3.64 -0.41,1.088 -1.004,2.025 -1.763,2.787"
             style="fill:#410099;fill-opacity:1;fill-rule:nonzero;stroke:none"
             id="path54" /></g><g
           id="g56"
           transform="translate(220.5712,40.6098)"><path
             d="m 0,0 v -5.703 c 0,-1.617 -0.483,-2.99 -1.438,-4.082 -0.952,-1.091 -2.258,-1.62 -3.995,-1.62 -0.863,0 -1.618,0.138 -2.247,0.412 -0.626,0.271 -1.156,0.642 -1.575,1.103 -0.421,0.46 -0.744,1.012 -0.963,1.64 -0.221,0.639 -0.334,1.345 -0.334,2.098 v 6.601 c 0,0.753 0.113,1.459 0.334,2.099 0.219,0.627 0.542,1.179 0.964,1.64 0.418,0.459 0.948,0.831 1.574,1.103 0.629,0.273 1.385,0.411 2.247,0.411 1.737,0 3.043,-0.529 3.995,-1.619 C -0.483,2.99 0,1.616 0,0 m 0.427,6.084 c -0.618,0.698 -1.347,1.262 -2.177,1.683 -1.121,0.568 -2.405,0.857 -3.817,0.857 -2.481,0 -4.478,-0.756 -5.936,-2.247 -1.456,-1.487 -2.194,-3.542 -2.194,-6.107 v -6.243 c 0,-2.565 0.738,-4.62 2.194,-6.107 1.458,-1.49 3.455,-2.246 5.936,-2.246 1.319,0 2.54,0.264 3.63,0.785 0.722,0.346 1.371,0.796 1.937,1.345 v -3.656 c 0,-1.447 -0.428,-2.585 -1.308,-3.479 -0.867,-0.879 -2.149,-1.325 -3.811,-1.325 -1.762,0 -3.073,0.377 -3.898,1.119 -0.821,0.74 -1.22,1.594 -1.22,2.607 v 0.9 h -3.056 v -0.675 c 0,-2.11 0.768,-3.793 2.28,-5 1.483,-1.183 3.466,-1.782 5.894,-1.782 2.436,0 4.441,0.68 5.958,2.021 1.53,1.358 2.307,3.321 2.307,5.838 V 8.175 H 0.844 Z"
             style="fill:#410099;fill-opacity:1;fill-rule:nonzero;stroke:none"
             id="path58" /></g><g
           id="g60"
           transform="translate(243.1962,48.7846)"><path
             d="M 0,0 -6.193,-17.769 -12.43,0 h -3.432 l 8.112,-22.229 -3.357,-8.984 h 3.074 L 3.296,0 Z"
             style="fill:#410099;fill-opacity:1;fill-rule:nonzero;stroke:none"
             id="path62" /></g></g></g><g
       id="g64"><g
         id="g66"
         clip-path="url(#clipPath70)"><g
           id="g72"
           transform="translate(-1e-4,185.3012)"><path
             d="M 0,0 H 335.409"
             style="fill:none;stroke:#fbdeec;stroke-width:0.15;stroke-linecap:butt;stroke-linejoin:miter;stroke-miterlimit:10;stroke-dasharray:none;stroke-opacity:1"
             id="path74" /></g><g
           id="g76"
           transform="translate(309.4373,211.2738)"><path
             d="M 0,0 V -211.273"
             style="fill:none;stroke:#fbdeec;stroke-width:0.15;stroke-linecap:butt;stroke-linejoin:miter;stroke-miterlimit:10;stroke-dasharray:none;stroke-opacity:1"
             id="path78" /></g><g
           id="g80"
           transform="translate(25.9725,211.2738)"><path
             d="M 0,0 V -211.273"
             style="fill:none;stroke:#fbdeec;stroke-width:0.15;stroke-linecap:butt;stroke-linejoin:miter;stroke-miterlimit:10;stroke-dasharray:none;stroke-opacity:1"
             id="path82" /></g><g
           id="g84"
           transform="translate(-1e-4,86.7748)"><path
             d="M 0,0 H 335.409"
             style="fill:none;stroke:#fbdeec;stroke-width:0.15;stroke-linecap:butt;stroke-linejoin:miter;stroke-miterlimit:10;stroke-dasharray:none;stroke-opacity:1"
             id="path86" /></g><g
           id="g88"
           transform="translate(-1e-4,56.3734)"><path
             d="M 0,0 H 335.409"
             style="fill:none;stroke:#fbdeec;stroke-width:0.15;stroke-linecap:butt;stroke-linejoin:miter;stroke-miterlimit:10;stroke-dasharray:none;stroke-opacity:1"
             id="path90" /></g><g
           id="g92"
           transform="translate(-1e-4,25.9721)"><path
             d="M 0,0 H 335.409"
             style="fill:none;stroke:#fbdeec;stroke-width:0.15;stroke-linecap:butt;stroke-linejoin:miter;stroke-miterlimit:10;stroke-dasharray:none;stroke-opacity:1"
             id="path94" /></g></g></g><g
       id="g96"
       transform="translate(319.1364,25.9722)"><path
         d="m 0,0 v -9.699 h -9.699 v -6.575 H 0 v -9.698 h 6.574 v 9.698 h 9.699 v 6.575 H 6.574 V 0 Z M -9.55,-9.85 H 0 0.149 v 0.151 9.549 H 6.424 V -9.699 -9.85 h 0.15 9.55 v -6.274 h -9.55 -0.15 v -0.15 -9.549 H 0.149 v 9.549 0.15 H 0 -9.549 Z"
         style="fill:#fbdeec;fill-opacity:1;fill-rule:nonzero;stroke:none"
         id="path98" /></g><g
       id="g100"
       transform="translate(9.6993,211.2741)"><path
         d="m 0,0 v -9.699 h -9.699 l 10e-4,-6.575 H 0 v -9.699 l 6.574,10e-4 v 9.698 h 9.699 v 6.575 H 6.574 V 0 Z M -9.549,-9.85 H 0 0.15 v 0.151 9.549 H 6.424 V -9.699 -9.85 h 0.15 9.55 v -6.273 h -9.55 -0.15 v -0.151 -9.548 L 0.15,-25.823 v 9.549 0.151 H 0 -9.549 Z"
         style="fill:#fbdeec;fill-opacity:1;fill-rule:nonzero;stroke:none"
         id="path102" /></g><g
       id="g104"><g
         id="g106"
         clip-path="url(#clipPath110)"><g
           id="g112"
           transform="translate(322.5711,86.7748)"><path
             d="m 0,0 c -5.523,0 -9.206,-3.144 -9.206,-7.589 0,-3.951 2.808,-6.107 6.214,-7.41 l 4.205,-1.669 c 4.055,-1.582 5.226,-2.739 5.226,-5.156 0,-1.579 -0.535,-2.842 -1.591,-3.753 -1.151,-0.992 -2.916,-1.538 -4.973,-1.538 -2.096,0 -3.89,0.527 -5.051,1.483 -1.035,0.854 -1.559,2.044 -1.559,3.538 v 0.719 h -3.287 v -0.719 c 0,-5.12 4.051,-8.307 9.897,-8.307 5.847,0 9.852,3.368 9.852,8.577 0,5.074 -3.868,6.87 -7.32,8.218 l -4.702,1.869 c -3.181,1.335 -3.625,2.841 -3.625,4.148 0,1.203 0.454,2.191 1.349,2.936 1.057,0.881 2.681,1.366 4.571,1.366 1.904,0 3.532,-0.505 4.583,-1.423 0.979,-0.855 1.476,-2.065 1.476,-3.598 v -0.539 h 3.287 v 0.539 C 9.346,-3.188 5.524,0 0,0 m 0,-0.15 c 5.586,0 9.195,-3.203 9.195,-8.158 V -8.696 H 6.209 v 0.388 c 0,1.578 -0.514,2.827 -1.527,3.711 -1.078,0.942 -2.742,1.46 -4.682,1.46 -1.925,0 -3.582,-0.498 -4.668,-1.401 -0.93,-0.774 -1.402,-1.801 -1.402,-3.051 0,-1.349 0.442,-2.912 3.719,-4.288 l 4.704,-1.869 c 3.655,-1.427 7.223,-3.226 7.223,-8.078 0,-5.041 -3.898,-8.428 -9.701,-8.428 -5.921,0 -9.747,3.202 -9.747,8.158 v 0.569 h 2.986 v -0.569 c 0,-1.541 0.543,-2.77 1.615,-3.653 1.188,-0.979 3.015,-1.518 5.146,-1.518 2.092,0 3.893,0.559 5.07,1.575 1.091,0.94 1.645,2.241 1.645,3.866 0,2.497 -1.194,3.684 -5.322,5.296 l -4.206,1.67 c -4.118,1.574 -6.119,3.952 -6.119,7.269 0,4.449 3.64,7.439 9.057,7.439"
             style="fill:#fbdeec;fill-opacity:1;fill-rule:nonzero;stroke:none"
             id="path114" /></g><g
           id="g116"
           transform="translate(322.5711,56.3734)"><path
             d="m 0,0 c -5.523,0 -9.206,-3.143 -9.206,-7.589 0,-3.951 2.808,-6.107 6.214,-7.409 l 4.205,-1.67 c 4.055,-1.582 5.226,-2.739 5.226,-5.156 0,-1.579 -0.535,-2.842 -1.591,-3.753 -1.151,-0.991 -2.916,-1.538 -4.973,-1.538 -2.096,0 -3.89,0.527 -5.051,1.484 -1.035,0.853 -1.559,2.043 -1.559,3.537 v 0.719 h -3.287 v -0.719 c 0,-5.119 4.051,-8.307 9.897,-8.307 5.847,0 9.852,3.368 9.852,8.577 0,5.074 -3.868,6.871 -7.32,8.218 l -4.702,1.869 c -3.181,1.335 -3.625,2.841 -3.625,4.148 0,1.203 0.454,2.191 1.349,2.936 1.057,0.881 2.681,1.366 4.571,1.366 1.904,0 3.532,-0.505 4.583,-1.423 0.979,-0.855 1.476,-2.065 1.476,-3.598 v -0.539 h 3.287 v 0.539 C 9.346,-3.188 5.524,0 0,0 m 0,-0.15 c 5.586,0 9.195,-3.203 9.195,-8.158 V -8.696 H 6.209 v 0.388 c 0,1.578 -0.514,2.827 -1.527,3.711 -1.078,0.942 -2.742,1.46 -4.682,1.46 -1.925,0 -3.582,-0.498 -4.668,-1.401 -0.93,-0.774 -1.402,-1.801 -1.402,-3.051 0,-1.349 0.442,-2.912 3.719,-4.288 l 4.704,-1.869 c 3.655,-1.427 7.223,-3.225 7.223,-8.078 0,-5.041 -3.898,-8.428 -9.701,-8.428 -5.921,0 -9.747,3.202 -9.747,8.158 v 0.569 h 2.986 v -0.569 c 0,-1.541 0.543,-2.77 1.615,-3.653 1.188,-0.979 3.015,-1.518 5.146,-1.518 2.092,0 3.893,0.559 5.07,1.575 1.091,0.94 1.645,2.241 1.645,3.866 0,2.497 -1.194,3.684 -5.322,5.296 l -4.206,1.67 c -4.118,1.574 -6.119,3.952 -6.119,7.269 0,4.449 3.64,7.439 9.057,7.439"
             style="fill:#fbdeec;fill-opacity:1;fill-rule:nonzero;stroke:none"
             id="path118" /></g></g></g></g></svg>
